<svg t="1639926396714" class="icon" viewBox="0 0 1024 1024" version="1.1" xmlns="http://www.w3.org/2000/svg" p-id="2889" width="200" height="200"><path d="M899.456 321.152v526.72c-0.576 31.488-11.52 57.856-32.832 79.168s-47.68 32.256-79.168 32.832h-560c-31.488-0.576-57.92-11.52-79.168-32.832-21.312-21.312-32.256-47.68-32.832-79.168v-672c0.576-31.488 11.52-57.856 32.832-79.168s47.68-32.256 79.168-32.832h672v140.032H316.736c-16.896 0.576-31.232 6.72-42.88 18.368-11.648 11.648-17.472 26.112-17.472 43.328 0 17.216 5.824 31.68 17.472 43.328 11.648 11.648 25.92 17.792 42.88 18.368h314.112v229.248c2.944 0.576 5.696 1.344 8.32 2.176s5.376 0.128 8.32-2.176l67.392-49.856c5.824-2.944 11.2-4.352 16.192-4.352 4.928 0 8.896 1.472 11.84 4.352l67.392 49.856h5.248c2.944 0 5.568-1.152 7.872-3.52 2.304-2.304 3.52-4.928 3.52-7.872v-224h72.512z" p-id="2890"></path></svg>