<svg t="1640253374206" class="icon" viewBox="0 0 1152 1024" version="1.1" xmlns="http://www.w3.org/2000/svg" p-id="2924" width="200" height="200"><path d="M236.374278 413.11061c-52.00857 0-97.632854-53.09857-97.632854-113.671425a101.525711 101.525711 0 0 1 97.632854-104.795711 101.525711 101.525711 0 0 1 97.788568 104.795711c0 60.572855-45.624284 113.671425-97.788568 113.671425z m0-179.071423a62.285712 62.285712 0 0 0-58.392855 65.399998c0 38.149999 28.339999 74.275712 58.392855 74.275712s58.54857-36.125713 58.54857-74.275712A62.285712 62.285712 0 0 0 236.374278 233.572044z" p-id="2925"></path><path d="M108.999997 1023.977733a19.619999 19.619999 0 0 1-20.554286-19.62V758.796313a19.775714 19.775714 0 0 1 39.395713 0V1004.357733A19.619999 19.619999 0 0 1 108.999997 1023.977733zM1044.531395 1023.977733a19.464285 19.464285 0 0 1-19.619999-19.62V758.796313a19.619999 19.619999 0 0 1 39.239998 0V1004.357733a19.464285 19.464285 0 0 1-19.619999 19.62zM185.14428 636.560602l31.142856-36.592856c-76.144283-4.204286-87.199997-32.855713-87.199997-63.68714 0-57.925712 47.804284-127.997139 107.287139-127.997139 37.059999 0 69.448569 27.094285 88.912854 62.285712l26.315714-31.142856a142.94571 142.94571 0 0 0-115.228568-69.448569c-82.372854 0-146.527138 89.84714-146.527138 167.237137 0 70.071426 51.229998 92.182854 95.29714 99.345711z" p-id="2926"></path><path d="M762.06569 350.20204H390.842845a19.464285 19.464285 0 0 1-19.62-19.619999v-311.428562A19.464285 19.464285 0 0 1 390.842845 0.000623h371.222845a19.464285 19.464285 0 0 1 19.619999 19.619999v311.428562a19.464285 19.464285 0 0 1-19.619999 19.152856zM410.462844 311.429184h331.982846V39.240622H410.462844z" p-id="2927"></path><path d="M707.409977 851.44631c1.09-2.335714 2.024286-4.671428 3.114286-6.851429h-6.228571c1.09 2.18 2.024286 4.515714 3.114285 6.851429zM445.498557 851.44631a55.27857 55.27857 0 0 1 3.27-6.851429h-6.54a55.27857 55.27857 0 0 1 3.27 6.851429z" p-id="2928"></path><path d="M1148.237106 851.602024L777.014261 409.684895a19.152857 19.152857 0 0 0-15.571428-7.162856H390.842845a19.152857 19.152857 0 0 0-15.571428 7.162856L4.671428 851.602024A19.308571 19.308571 0 0 0 1.868571 872.000595a19.464285 19.464285 0 0 0 17.751428 11.367142h152.911424a200.559994 200.559994 0 0 1 14.325714-38.772856H62.285712l337.744275-402.677129h352.84856l338.055704 402.677129H965.42854a174.399994 174.399994 0 0 1 15.571429 39.239999h153.067137a19.619999 19.619999 0 0 0 16.972857-11.834285 19.308571 19.308571 0 0 0-2.802857-20.398571z" p-id="2929"></path><path d="M838.365687 1023.977733c-36.281427 0-146.682852 0-146.682852-103.549997 0-77.85714 64.154284-167.237137 146.682852-167.237137s146.527138 89.84714 146.527139 167.237137c0 103.549997-110.401425 103.549997-146.527139 103.549997z m0-231.547136c-59.482855 0-107.442854 70.071426-107.442853 127.997139 0 33.47857 13.08 64.309998 107.442853 64.309998s107.287139-31.142856 107.28714-64.309998c0-57.925712-47.959998-127.997139-107.28714-127.997139z" p-id="2930"></path><path d="M838.365687 797.25774c-52.164284 0-97.788568-53.09857-97.788568-113.671425a97.944283 97.944283 0 1 1 195.421422 0c0 60.572855-45.624284 113.671425-97.632854 113.671425z m0-179.227137a62.285712 62.285712 0 0 0-58.392855 65.555712c0 38.149999 28.339999 74.275712 58.392855 74.275712s58.392855-36.125713 58.392856-74.275712a62.285712 62.285712 0 0 0-58.392856-65.555712zM576.142839 1023.977733c-36.281427 0-146.682852 0-146.682853-103.549997 0-77.85714 63.998569-167.237137 146.682853-167.237137s146.527138 89.84714 146.527138 167.237137c0.311429 103.549997-109.934282 103.549997-146.527138 103.549997z m0-231.547136c-59.482855 0-107.442854 70.071426-107.442854 127.997139 0 33.47857 13.08 64.309998 107.442854 64.309998s107.287139-31.142856 107.287139-64.309998c0.311429-57.925712-47.492856-127.997139-107.287139-127.997139z" p-id="2931"></path><path d="M576.142839 797.25774c-52.164284 0-97.788568-53.09857-97.788569-113.671425A101.525711 101.525711 0 0 1 576.142839 578.790604a101.681425 101.681425 0 0 1 98.099997 104.795711c0 60.572855-45.779999 113.671425-98.099997 113.671425z m0-179.227137a62.285712 62.285712 0 0 0-58.392856 65.555712c0 38.149999 28.339999 74.275712 58.392856 74.275712s58.392855-36.125713 58.392855-74.275712A62.285712 62.285712 0 0 0 576.142839 618.030603zM314.542847 1023.977733c-36.281427 0-146.682852 0-146.682852-103.549997 0-77.85714 63.998569-167.237137 146.682852-167.237137s146.682852 89.84714 146.682852 167.237137c0 103.549997-110.401425 103.549997-146.682852 103.549997z m0-231.547136c-59.482855 0-107.287139 70.071426-107.287139 127.997139 0 33.47857 12.924285 64.309998 107.287139 64.309998s107.287139-31.142856 107.287139-64.309998c0-57.925712-48.115713-127.997139-107.287139-127.997139z" p-id="2932"></path><path d="M314.542847 797.25774c-52.00857 0-97.632854-53.09857-97.632854-113.671425a101.525711 101.525711 0 0 1 97.632854-104.795711 101.681425 101.681425 0 0 1 97.788568 104.795711c0 60.572855-45.779999 113.671425-97.788568 113.671425z m0-179.227137a62.285712 62.285712 0 0 0-58.548569 65.555712c0 38.149999 28.495713 74.275712 58.548569 74.275712S373.714274 721.736314 373.714274 683.586315a62.285712 62.285712 0 0 0-59.171427-65.555712z" p-id="2933"></path></svg>